<svg xmlns="http://www.w3.org/2000/svg" version="1.1" xmlns:xlink="http://www.w3.org/1999/xlink" xmlns:svgjs="http://svgjs.dev/svgjs" width="1000" height="623" viewBox="0 0 1000 623"><g transform="matrix(1,0,0,1,-0.6060606060606233,0.2522267206477409)"><svg viewBox="0 0 396 247" data-background-color="#ffffff" preserveAspectRatio="xMidYMid meet" height="623" width="1000" xmlns="http://www.w3.org/2000/svg" xmlns:xlink="http://www.w3.org/1999/xlink"><g id="tight-bounds" transform="matrix(1,0,0,1,0.2400000000000091,-0.09999999999999432)"><svg viewBox="0 0 395.52 247.2" height="247.2" width="395.52"><g><svg></svg></g><g><svg viewBox="0 0 395.52 247.2" height="247.2" width="395.52"><g transform="matrix(1,0,0,1,134.1946698742511,47.215199999999996)"><svg viewBox="0 0 127.13066025149777 152.7696" height="152.7696" width="127.13066025149777"><g><svg viewBox="0 0 127.13066025149777 152.7696" height="152.7696" width="127.13066025149777"><g><svg viewBox="0 0 175.5732309099754 210.98177421373515" height="152.7696" width="127.13066025149777"><g><svg viewBox="0 0 175.5732309099754 210.98177421373515" height="210.98177421373515" width="175.5732309099754"><g id="textblocktransform"><svg viewBox="0 0 175.5732309099754 210.98177421373515" height="210.98177421373515" width="175.5732309099754" id="textblock"><g><svg viewBox="0 0 175.5732309099754 151.825483872" height="151.825483872" width="175.5732309099754"><g transform="matrix(1,0,0,1,0,0)"><svg width="175.5732309099754" viewBox="-4 -48.099998474121094 64.25 55.56999969482422" height="151.825483872" data-palette-color="#c70c0c"><path d="M60.25-4.25L60.25-4.25Q60.25-2 58.15-1.51L58.15-1.51Q57.57-2.05 56.45-2.12 55.32-2.2 54.49-2.2L54.49-2.2Q54.1-2.2 53.91-1.95 53.71-1.71 53.47-1.71L53.47-1.71Q52.25-1.71 51.05-1.81 49.85-1.9 48.63-1.9L48.63-1.9Q47.17-1.9 45.63-1.61 44.09-1.32 43.07-1.32L43.07-1.32Q42.77-1.32 42.6-1.46 42.43-1.61 42.24-1.71L42.24-1.71Q41.8-1.56 41.41-1.27 41.02-0.98 40.53-0.98L40.53-0.98Q40.33-0.98 40.14-1.12 39.94-1.27 39.79-1.37L39.79-1.37Q39.4-1.27 39.16-1.03 38.92-0.78 38.57-0.63L38.57-0.63Q38.23-0.83 37.89-0.83L37.89-0.83Q37.5-0.83 37.08-0.66 36.67-0.49 36.28-0.29L36.28-0.29Q35.89-0.24 35.47-0.27 35.06-0.29 34.67-0.29L34.67-0.29Q34.18-0.29 33.69-0.24 33.2-0.2 32.81 0.05L32.81 0.05Q30.62 0.05 28.49 0.49 26.37 0.93 24.32 1.61L24.32 1.61 21.04 2.69Q20.8 2.69 20.68 2.59 20.56 2.49 20.41 2.49L20.41 2.49 20.17 2.49Q19.58 2.98 18.68 3.27 17.77 3.56 16.75 3.76 15.72 3.96 14.72 4.15 13.72 4.35 12.99 4.59L12.99 4.59Q12.5 4.79 12.13 5.08 11.77 5.37 11.23 5.52L11.23 5.52Q10.99 5.57 10.74 5.52 10.5 5.47 10.25 5.47L10.25 5.47Q9.72 5.47 8.94 5.79 8.15 6.1 7.15 6.47 6.15 6.84 5.03 7.15 3.91 7.47 2.73 7.47L2.73 7.47Q1.95 7.47 0.81 7.32-0.34 7.18-1.42 6.79-2.49 6.4-3.25 5.71-4 5.03-4 3.91L-4 3.91Q-4 3.13-3.71 2.81-3.42 2.49-3.42 1.9L-3.42 1.9Q-3.42 1.76-3.49 1.59-3.56 1.42-3.66 1.32L-3.66 1.32Q-2.69 0.24-1.9-0.95-1.12-2.15-0.49-3.47L-0.49-3.47Q0.24-4.05 0.88-4.81 1.51-5.57 2.15-6.3 2.78-7.03 3.49-7.71 4.2-8.4 5.08-8.84L5.08-8.84Q5.32-9.47 5.81-10.11L5.81-10.11Q6.49-10.35 7.01-10.79 7.52-11.23 8.01-11.74 8.5-12.26 9.01-12.7 9.52-13.13 10.21-13.38L10.21-13.38Q10.55-14.06 11.08-14.62 11.62-15.19 12.16-15.72L12.16-15.72 13.23-16.8Q13.77-17.33 14.21-17.97L14.21-17.97Q14.5-18.07 14.6-18.24 14.7-18.41 15.09-18.31L15.09-18.31 15.09-18.99Q15.72-19.29 16.19-19.73 16.65-20.17 17.09-20.65 17.53-21.14 18.02-21.61 18.51-22.07 19.09-22.36L19.09-22.36 19.09-23.24Q19.58-23.34 19.97-23.66 20.36-23.97 20.85-24.12L20.85-24.12Q20.8-25.05 21.29-25.46 21.78-25.88 22.46-26.42L22.46-26.42Q22.9-27.54 23.73-28.37L23.73-28.37 25.39-30.03Q26.03-31.4 26.83-32.59 27.64-33.79 28.22-35.16L28.22-35.16Q28.66-35.4 29-35.79 29.35-36.18 29.64-36.6 29.93-37.01 30.27-37.4 30.62-37.79 31.05-38.09L31.05-38.09 31.01-38.33Q31.01-38.67 31.25-38.92 31.49-39.16 31.49-39.4L31.49-39.4Q31.49-39.5 31.4-39.7L31.4-39.7 30.91-39.7Q29.79-39.7 28.42-39.45 27.05-39.21 26.12-38.67L26.12-38.67 25.83-38.67Q24.76-38.67 23.71-38.4 22.66-38.13 21.58-37.84 20.51-37.55 19.46-37.35 18.41-37.16 17.33-37.26L17.33-37.26Q16.7-36.96 15.99-36.79 15.28-36.62 14.75-36.18L14.75-36.18Q13.57-36.04 12.08-35.72 10.6-35.4 9.08-35.08 7.57-34.77 6.15-34.5 4.74-34.23 3.71-34.23L3.71-34.23Q3.03-34.23 2.42-34.52 1.81-34.81 1.37-35.3 0.93-35.79 0.66-36.43 0.39-37.06 0.39-37.7L0.39-37.7Q0.39-38.43 0.73-39.36L0.73-39.36Q1.07-39.7 1.49-39.92 1.9-40.14 2.15-40.53L2.15-40.53Q2.59-40.43 3.08-40.31 3.56-40.19 4.05-40.19L4.05-40.19Q4.54-40.19 4.93-40.38L4.93-40.38Q5.32-40.43 5.44-40.11 5.57-39.79 5.81-39.7L5.81-39.7Q6.88-39.89 7.91-40.28 8.94-40.67 10.06-40.67L10.06-40.67Q10.64-40.67 11.23-40.53L11.23-40.53Q13.92-41.31 16.63-41.89 19.34-42.48 21.92-43.55L21.92-43.55 22.56-43.51Q23.24-43.41 23.9-43.58 24.56-43.75 25.24-43.7L25.24-43.7Q25.98-44.29 26.95-44.53 27.93-44.78 28.96-44.97 29.98-45.17 30.98-45.39 31.98-45.61 32.81-46.14L32.81-46.14 33.06-46.14Q33.98-46.14 34.89-46.44 35.79-46.73 36.65-47.09 37.5-47.46 38.33-47.78 39.16-48.1 39.99-48.1L39.99-48.1Q41.31-48.1 42.24-47.07L42.24-47.07Q41.7-46.68 41.36-46L41.36-46Q41.8-45.31 41.8-44.58L41.8-44.58Q41.8-43.85 41.6-43.09 41.41-42.33 41.36-41.6L41.36-41.6Q39.99-41.11 39.18-40.06 38.38-39.01 37.35-38.09L37.35-38.09 37.35-37.26Q36.72-36.87 36.3-36.3 35.89-35.74 35.06-35.64L35.06-35.64Q34.81-34.62 34.35-33.72 33.89-32.81 32.81-32.52L32.81-32.52Q32.71-32.18 32.52-31.93 32.32-31.69 32.13-31.47 31.93-31.25 31.81-30.96 31.69-30.66 31.74-30.22L31.74-30.22Q30.76-29.35 29.93-28.34 29.1-27.34 28.32-26.32 27.54-25.29 26.71-24.32 25.88-23.34 24.9-22.51L24.9-22.51Q24.8-21.97 24.46-21.63 24.12-21.29 24.02-20.75L24.02-20.75Q23.05-19.87 22.09-19.02 21.14-18.16 20.21-17.24L20.21-17.24Q19.78-16.8 19.38-16.28 18.99-15.77 18.6-15.33L18.6-15.33Q18.46-15.23 18.26-15.19 18.07-15.14 17.92-15.14L17.92-15.14Q17.38-14.26 16.7-13.55 16.02-12.84 15.28-12.16 14.55-11.47 13.87-10.77 13.18-10.06 12.65-9.18L12.65-9.18Q11.62-8.54 10.74-7.76 9.86-6.98 9.03-6.13 8.2-5.27 7.37-4.39 6.54-3.52 5.66-2.73L5.66-2.73Q5.57-2.2 5.3-1.78 5.03-1.37 4.79-0.95 4.54-0.54 4.32-0.07 4.1 0.39 4.05 0.98L4.05 0.98Q4.3 1.07 4.49 1.07L4.49 1.07 4.98 1.07Q5.96 1.07 6.86 0.68 7.76 0.29 8.59-0.1L8.59-0.1Q9.38-0.15 10.13-0.32 10.89-0.49 11.38-1.17L11.38-1.17Q11.62-1.07 11.77-1.07L11.77-1.07 12.11-1.07Q12.6-1.07 13.06-1.2 13.53-1.32 13.99-1.46 14.45-1.61 14.92-1.71 15.38-1.81 15.97-1.71L15.97-1.71Q16.7-2.15 17.5-2.37 18.31-2.59 19.17-2.78 20.02-2.98 20.8-3.22 21.58-3.47 22.27-3.96L22.27-3.96Q22.51-3.91 22.9-3.91L22.9-3.91Q23.44-3.91 24.05-4.05 24.66-4.2 25.2-4.44L25.2-4.44Q25.83-4.64 26.46-4.98L26.46-4.98Q26.76-4.98 26.86-4.88 26.95-4.79 27.1-4.79L27.1-4.79Q27.25-4.79 27.34-4.83L27.34-4.83Q27.98-5.03 28.52-5.25 29.05-5.47 29.69-5.66L29.69-5.66Q31.1-6.01 32.52-6.2 33.94-6.4 35.35-6.64L35.35-6.64Q35.99-6.74 36.6-6.93 37.21-7.13 37.84-7.28L37.84-7.28 38.09-7.28Q38.18-7.28 38.26-7.1 38.33-6.93 38.57-6.93L38.57-6.93Q39.06-6.93 39.65-7.08 40.23-7.23 40.77-7.32L40.77-7.32Q43.16-7.76 45.85-7.76L45.85-7.76Q46.83-7.76 47.78-7.62 48.73-7.47 49.71-7.47L49.71-7.47Q50.05-7.47 50.27-7.62 50.49-7.76 50.78-7.81L50.78-7.81 50.78-7.57Q50.78-7.13 50.98-6.93L50.98-6.93Q51.37-7.18 51.83-7.23 52.29-7.28 52.73-7.28L52.73-7.28Q53.91-7.28 55.05-7.1 56.2-6.93 57.32-6.93L57.32-6.93Q58.01-6.93 58.69-7.08L58.69-7.08Q58.79-6.74 59.16-6.67 59.52-6.59 59.77-6.4L59.77-6.4Q60.25-5.32 60.25-4.25Z" opacity="1" transform="matrix(1,0,0,1,0,0)" fill="#c70c0c" class="wordmark-text-0" data-fill-palette-color="primary" id="text-0"></path></svg></g></svg></g><g transform="matrix(1,0,0,1,0,187.66783680256628)"><svg viewBox="0 0 175.5732309099754 23.313937411168858" height="23.313937411168858" width="175.5732309099754"><g transform="matrix(1,0,0,1,0,0)"><svg width="175.5732309099754" viewBox="1.149999976158142 -31.8799991607666 244.5 32.46999740600586" height="23.313937411168858" data-palette-color="#ffff00"><path d="M1.15-2.54L1.34 0 24.19 0 25.59-8.18 23.32-8.57 20.31-2.44 6.4-2.44 25.05-28.52 25.05-30.37 2.39-30.37 2.15-22.49 4.35-22.05 6.23-28.05 19.34-28.05 1.15-2.54ZM30.56 0.59Q33.2 0.59 34.87-0.62 36.55-1.83 37.25-3.2L37.25-3.2 37.52-3.2 37.52-2.83Q37.52-2.03 37.9-1.28 38.28-0.54 39.13-0.05 39.99 0.44 41.31 0.44L41.31 0.44Q42.33 0.44 43.5 0.17L43.5 0.17Q44.26 0.02 44.63-0.02L44.63-0.02 44.94-2.12 43.72-2.34Q42.58-2.54 42-2.87 41.43-3.2 41.21-3.82 40.99-4.44 40.99-5.62L40.99-5.62 40.99-14.48Q40.99-18.38 39.58-20.18 38.18-21.97 34.96-21.97L34.96-21.97Q33.25-21.97 31.27-21.26 29.29-20.56 27.95-19.4 26.61-18.24 26.61-16.97L26.61-16.97Q26.61-15.38 27.59-14.92 28.56-14.45 30-14.45L30-14.45Q30.22-16.92 30.38-17.85 30.54-18.77 31.05-19.24 31.56-19.7 32.71-19.7L32.71-19.7Q35.03-19.7 36.03-17.86 37.03-16.02 37.03-13.18L37.03-13.18 37.03-11.84Q33.23-11.57 30.7-10.44 28.17-9.3 26.98-7.64 25.78-5.98 25.78-4.1L25.78-4.1Q25.78-2.66 26.43-1.6 27.07-0.54 28.17 0.02 29.27 0.59 30.56 0.59L30.56 0.59ZM37.03-10.45L37.03-4.59Q36.3-3.78 35.13-3.1 33.96-2.42 32.79-2.42L32.79-2.42Q31.93-2.42 31.31-2.86 30.69-3.3 30.37-3.96 30.05-4.61 30.05-5.25L30.05-5.25Q30.05-7.13 31.64-8.41 33.23-9.69 37.03-10.45L37.03-10.45ZM45.14 0L56.81 0 57.1-1.95 53.22-2.83 53.22-30.88 52.61-31.49 45.58-30.93 45.28-29.08 49.14-27.78 49.14-2.83 45.41-1.93 45.14 0ZM56.37-7.01Q58.59-4 59.93-2.49 61.27-0.98 62.56-0.26 63.84 0.46 65.42 0.46L65.42 0.46Q66.6 0.46 68.33 0L68.33 0 68.6-1.88 67.62-2.03Q66.4-2.17 65.46-2.78 64.52-3.39 63.68-4.35 62.84-5.3 61.37-7.23L61.37-7.23Q60.18-8.84 59.69-9.42L59.69-9.42 57.76-11.89 63.54-18.97 67.18-20 67.52-21.8 57.12-21.8 56.88-19.95 60.13-18.97 53.8-11.04 53.8-10.55 56.37-7.01ZM74.55 0.59Q77.19 0.59 78.86-0.62 80.53-1.83 81.24-3.2L81.24-3.2 81.51-3.2 81.51-2.83Q81.51-2.03 81.89-1.28 82.27-0.54 83.12-0.05 83.98 0.44 85.3 0.44L85.3 0.44Q86.32 0.44 87.49 0.17L87.49 0.17Q88.25 0.02 88.62-0.02L88.62-0.02 88.93-2.12 87.71-2.34Q86.56-2.54 85.99-2.87 85.42-3.2 85.2-3.82 84.98-4.44 84.98-5.62L84.98-5.62 84.98-14.48Q84.98-18.38 83.57-20.18 82.17-21.97 78.95-21.97L78.95-21.97Q77.24-21.97 75.26-21.26 73.28-20.56 71.94-19.4 70.6-18.24 70.6-16.97L70.6-16.97Q70.6-15.38 71.57-14.92 72.55-14.45 73.99-14.45L73.99-14.45Q74.21-16.92 74.37-17.85 74.53-18.77 75.04-19.24 75.55-19.7 76.7-19.7L76.7-19.7Q79.02-19.7 80.02-17.86 81.02-16.02 81.02-13.18L81.02-13.18 81.02-11.84Q77.21-11.57 74.69-10.44 72.16-9.3 70.96-7.64 69.77-5.98 69.77-4.1L69.77-4.1Q69.77-2.66 70.41-1.6 71.06-0.54 72.16 0.02 73.26 0.59 74.55 0.59L74.55 0.59ZM81.02-10.45L81.02-4.59Q80.29-3.78 79.12-3.1 77.95-2.42 76.77-2.42L76.77-2.42Q75.92-2.42 75.3-2.86 74.68-3.3 74.36-3.96 74.04-4.61 74.04-5.25L74.04-5.25Q74.04-7.13 75.63-8.41 77.21-9.69 81.02-10.45L81.02-10.45ZM103.33 0L103.58-2.12 97.89-2.95 97.89-12.3Q98.13-14.04 98.85-15.23 99.57-16.43 100.45-17.03 101.33-17.63 102.07-17.63L102.07-17.63Q102.77-17.63 103.55-17.37 104.34-17.11 105.04-16.67L105.04-16.67Q106.44-17.85 106.44-19.38L106.44-19.38Q106.44-20.48 105.68-21.3 104.92-22.12 103.73-22.12L103.73-22.12Q102.63-22.12 101.5-21.37 100.38-20.63 99.38-19.14 98.38-17.65 97.74-15.53L97.74-15.53 97.28-15.53 97.77-21.14 97.21-21.73 90.2-20.83 89.86-18.97 93.84-17.77 93.84-2.78 90.1-1.81 89.86 0 103.33 0ZM113.54-26.12Q114.32-26.12 115.01-26.53 115.71-26.93 116.11-27.61 116.52-28.3 116.52-29.1L116.52-29.1Q116.52-30.27 115.64-31.08 114.76-31.88 113.54-31.88L113.54-31.88Q112.37-31.88 111.5-31.09 110.63-30.3 110.63-29.15L110.63-29.15Q110.63-28.34 111.02-27.65 111.41-26.95 112.08-26.54 112.76-26.12 113.54-26.12L113.54-26.12ZM107.73 0L119.45 0 119.71-1.95 115.81-2.83 115.81-21 115.2-21.61 108.34-21.04 108.02-19.19 111.71-17.85 111.71-2.83 108.02-1.93 107.73 0ZM125.91 0.59Q128.55 0.59 130.22-0.62 131.89-1.83 132.6-3.2L132.6-3.2 132.87-3.2 132.87-2.83Q132.87-2.03 133.25-1.28 133.63-0.54 134.48-0.05 135.34 0.44 136.65 0.44L136.65 0.44Q137.68 0.44 138.85 0.17L138.85 0.17Q139.61 0.02 139.98-0.02L139.98-0.02 140.29-2.12 139.07-2.34Q137.92-2.54 137.35-2.87 136.78-3.2 136.56-3.82 136.34-4.44 136.34-5.62L136.34-5.62 136.34-14.48Q136.34-18.38 134.93-20.18 133.53-21.97 130.31-21.97L130.31-21.97Q128.6-21.97 126.62-21.26 124.64-20.56 123.3-19.4 121.96-18.24 121.96-16.97L121.96-16.97Q121.96-15.38 122.93-14.92 123.91-14.45 125.35-14.45L125.35-14.45Q125.57-16.92 125.73-17.85 125.89-18.77 126.4-19.24 126.91-19.7 128.06-19.7L128.06-19.7Q130.38-19.7 131.38-17.86 132.38-16.02 132.38-13.18L132.38-13.18 132.38-11.84Q128.57-11.57 126.05-10.44 123.52-9.3 122.32-7.64 121.13-5.98 121.13-4.1L121.13-4.1Q121.13-2.66 121.77-1.6 122.42-0.54 123.52 0.02 124.62 0.59 125.91 0.59L125.91 0.59ZM132.38-10.45L132.38-4.59Q131.65-3.78 130.48-3.1 129.31-2.42 128.13-2.42L128.13-2.42Q127.28-2.42 126.66-2.86 126.03-3.3 125.72-3.96 125.4-4.61 125.4-5.25L125.4-5.25Q125.4-7.13 126.99-8.41 128.57-9.69 132.38-10.45L132.38-10.45ZM148.83-2.54L149.03 0 171.88 0 173.27-8.18 171-8.57 168-2.44 154.08-2.44 172.73-28.52 172.73-30.37 150.08-30.37 149.83-22.49 152.03-22.05 153.91-28.05 167.02-28.05 148.83-2.54ZM183.91 0L184.21-1.95 180.64-2.83 180.64-16.48Q181.81-17.7 182.99-18.18 184.16-18.65 185.35-18.65L185.35-18.65Q187.06-18.65 188.31-17.59 189.55-16.53 189.55-14.16L189.55-14.16 189.55-2.78 186.18-1.81 185.89 0 196.85 0 197.15-1.93 193.61-2.78 193.61-14.62Q193.61-18.77 192.06-20.37 190.5-21.97 187.67-21.97L187.67-21.97Q183.94-21.97 180.5-18.16L180.5-18.16 180.25-18.16 180.64-20.75 180.64-31.13 180.03-31.71 172.98-31.18 172.68-29.32 176.59-28 176.59-2.83 172.83-1.93 172.56 0 183.91 0ZM197.68 0L209.35 0 209.64-1.95 205.76-2.83 205.76-31.13 205.15-31.71 198.12-31.18 197.83-29.32 201.68-28 201.68-2.83 197.95-1.93 197.68 0ZM215.82 0.59Q218.45 0.59 220.13-0.62 221.8-1.83 222.51-3.2L222.51-3.2 222.78-3.2 222.78-2.83Q222.78-2.03 223.15-1.28 223.53-0.54 224.39-0.05 225.24 0.44 226.56 0.44L226.56 0.44Q227.58 0.44 228.76 0.17L228.76 0.17Q229.51 0.02 229.88-0.02L229.88-0.02 230.2-2.12 228.98-2.34Q227.83-2.54 227.26-2.87 226.68-3.2 226.46-3.82 226.24-4.44 226.24-5.62L226.24-5.62 226.24-14.48Q226.24-18.38 224.84-20.18 223.43-21.97 220.21-21.97L220.21-21.97Q218.5-21.97 216.53-21.26 214.55-20.56 213.2-19.4 211.86-18.24 211.86-16.97L211.86-16.97Q211.86-15.38 212.84-14.92 213.82-14.45 215.26-14.45L215.26-14.45Q215.48-16.92 215.63-17.85 215.79-18.77 216.31-19.24 216.82-19.7 217.97-19.7L217.97-19.7Q220.29-19.7 221.29-17.86 222.29-16.02 222.29-13.18L222.29-13.18 222.29-11.84Q218.48-11.57 215.95-10.44 213.42-9.3 212.23-7.64 211.03-5.98 211.03-4.1L211.03-4.1Q211.03-2.66 211.68-1.6 212.33-0.54 213.42 0.02 214.52 0.59 215.82 0.59L215.82 0.59ZM222.29-10.45L222.29-4.59Q221.55-3.78 220.38-3.1 219.21-2.42 218.04-2.42L218.04-2.42Q217.18-2.42 216.56-2.86 215.94-3.3 215.62-3.96 215.3-4.61 215.3-5.25L215.3-5.25Q215.3-7.13 216.89-8.41 218.48-9.69 222.29-10.45L222.29-10.45ZM233.93-18.63L233.83-6.35Q233.81-2.54 235.19-0.99 236.57 0.56 239.03 0.56L239.03 0.56Q241.08 0.56 242.79-0.39 244.5-1.34 245.65-3.03L245.65-3.03 245.14-4.35Q245.14-4.32 244.56-3.96 243.99-3.59 243.21-3.28 242.43-2.98 241.62-2.98L241.62-2.98Q240.33-2.98 239.55-3.42 238.76-3.86 238.4-4.91 238.03-5.96 238.03-7.79L238.03-7.79 238.1-18.58 244.84-18.58 245.06-20.73 238.15-20.73 238.15-26.54 236.86-26.54Q235.54-24.73 233.93-22.95 232.32-21.17 230.83-19.95L230.83-19.95 230.83-18.63 233.93-18.63Z" opacity="1" transform="matrix(1,0,0,1,0,0)" fill="#ffff00" class="slogan-text-1" data-fill-palette-color="secondary" id="text-1"></path></svg></g></svg></g></svg></g></svg></g></svg></g></svg></g></svg></g><g><path d="M187.165 0c33.121 0 63.2 13.028 85.391 34.239l-7.345 0c-20.86-18.234-48.163-29.282-78.046-29.282-29.883 0-57.185 11.048-78.045 29.282l-7.345 0c22.191-21.211 52.269-34.239 85.39-34.239zM187.165 247.2c-33.121 0-63.2-13.028-85.39-34.239l7.345 0c20.86 18.234 48.163 29.282 78.045 29.282 29.883 0 57.185-11.048 78.046-29.282h7.345c-22.191 21.211-52.269 34.239-85.391 34.239z" fill="#4c15d3" stroke="transparent" data-fill-palette-color="tertiary"></path></g></svg></g><defs></defs></svg><rect width="395.52" height="247.2" fill="none" stroke="none" visibility="hidden"></rect></g></svg></g></svg>